HIERARCHY
ROOT Hips
{
	OFFSET 0.00000 0.00000 0.00000
	CHANNELS 6 Xposition Yposition Zposition Zrotation Yrotation Xrotation 
	JOINT LHipJoint
	{
		OFFSET 0 0 0
		CHANNELS 3 Zrotation Yrotation Xrotation
		JOINT LeftHip
		{
			OFFSET 1.37959 -1.78713 0.86582
			CHANNELS 3 Zrotation Yrotation Xrotation
			JOINT LeftKnee
			{
				OFFSET 2.54611 -6.99539 0.00000
				CHANNELS 3 Zrotation Yrotation Xrotation
				JOINT LeftAnkle
				{
					OFFSET 2.59951 -7.14211 0.00000
					CHANNELS 3 Zrotation Yrotation Xrotation
					JOINT LeftToe
					{
						OFFSET 0.18493 -0.50810 1.96120
						CHANNELS 3 Zrotation Yrotation Xrotation
						End Site
						{
							OFFSET 0.00000 -0.00000 1.02054
						}
					}
				}
			}
		}
	}
	JOINT RHipJoint
	{
		OFFSET 0 0 0
		CHANNELS 3 Zrotation Yrotation Xrotation
		JOINT RightHip
		{
			OFFSET -1.33564 -1.78713 0.86582
			CHANNELS 3 Zrotation Yrotation Xrotation
			JOINT RightKnee
			{
				OFFSET -2.52705 -6.94302 0.00000
				CHANNELS 3 Zrotation Yrotation Xrotation
				JOINT RightAnkle
				{
					OFFSET -2.55964 -7.03257 0.00000
					CHANNELS 3 Zrotation Yrotation Xrotation
					JOINT RightToe
					{
						OFFSET -0.25804 -0.70896 2.12109
						CHANNELS 3 Zrotation Yrotation Xrotation
						End Site
						{
							OFFSET -0.00000 -0.00000 1.11821
						}
					}
				}
			}
		}
	}
	JOINT lowerback
	{
		OFFSET 0 0 0
		CHANNELS 3 Zrotation Yrotation Xrotation
		JOINT Chest
		{
			OFFSET -0.02031 2.24248 -0.18900
			CHANNELS 3 Zrotation Yrotation Xrotation
			JOINT Chest2
			{
				OFFSET 0.08342 2.24689 -0.03799
				CHANNELS 3 Zrotation Yrotation Xrotation
				JOINT lowerneck
				{
					OFFSET 0 0 0
					CHANNELS 3 Zrotation Yrotation Xrotation
					JOINT Neck
					{
						OFFSET -0.11607 1.55844 0.24628
						CHANNELS 3 Zrotation Yrotation Xrotation
						JOINT Head
						{
							OFFSET 0.06877 1.60174 -0.17013
							CHANNELS 3 Zrotation Yrotation Xrotation
							End Site
							{
								OFFSET 0.03358 1.61266 -0.08543
							}
						}
					}
				}
				JOINT LeftCollar
				{
					OFFSET 0 0 0
					CHANNELS 3 Zrotation Yrotation Xrotation
					JOINT LeftShoulder
					{
						OFFSET 3.47537 0.55866 -0.72348
CHANNELS 3 Zrotation Xrotation Yrotation
						JOINT LeftElbow
						{
OFFSET 0 -5.381540 0.000000
CHANNELS 3 Zrotation Xrotation Yrotation
							JOINT LeftWrist
							{
OFFSET 0 -3.333120 0.000000
CHANNELS 3 Zrotation Xrotation Yrotation
								JOINT lhand
								{
									OFFSET 0 0 0
CHANNELS 3 Zrotation Xrotation Yrotation
									JOINT LFingers
									{
OFFSET 0 -0.710790 0.000000
CHANNELS 3 Zrotation Xrotation Yrotation
										End Site
										{
OFFSET 0 -0.573060 0.000000
										}
									}
								}
								JOINT LThumb
								{
OFFSET 0 0.000000 0.000000
CHANNELS 3 Zrotation Xrotation Yrotation
									End Site
									{
OFFSET 0 -0.581810 0.581810
									}
								}
							}
						}
					}
				}
				JOINT RightCollar
				{
					OFFSET 0 0 0
					CHANNELS 3 Zrotation Yrotation Xrotation
					JOINT RightShoulder
					{
						OFFSET -3.27844 0.90739 -0.35708
CHANNELS 3 Zrotation Xrotation Yrotation
						JOINT RightElbow
						{
OFFSET 0 -5.169540 0.000000
CHANNELS 3 Zrotation Xrotation Yrotation
							JOINT RightWrist
							{
OFFSET 0 -3.382870 0.000000
CHANNELS 3 Zrotation Xrotation Yrotation
								JOINT rhand
								{
									OFFSET 0 0 0
CHANNELS 3 Zrotation Xrotation Yrotation
									JOINT RFingers
									{
OFFSET 0 -0.817970 0.000000
CHANNELS 3 Zrotation Xrotation Yrotation
										End Site
										{
OFFSET 0 -0.659470 0.000000
										}
									}
								}
								JOINT RThumb
								{
OFFSET 0 0.000000 0.000000
CHANNELS 3 Zrotation Xrotation Yrotation
									End Site
									{
OFFSET 0 -0.669530 0.669530
									}
								}
							}
						}
					}
				}
			}
		}
	}
}
MOTION
Frames: 7
Frame Time: 0.008333333333333333
13.373800 16.018800 19.073600 -44.031600 -56.301500 56.546000 0.000000 0.000000 0.000000 0.039600 -12.739700 -58.799000 17.589200 19.860100 82.935400 -0.579600 -17.828200 -6.118200 0.506400 4.561700 12.662500 0.000000 0.000000 0.000000 40.713600 -13.788600 -2.002200 -2.022100 -8.912000 25.520400 -1.952300 -6.021500 -29.112300 -0.995900 6.350900 -17.806000 16.202300 0.062000 16.648600 7.802600 3.359600 1.103200 -1.270400 1.013000 -7.742600 -12.638200 -21.686600 6.617100 31.149100 -33.916700 5.056400 8.280900 -16.862400 8.458100 0.000000 -0.000000 0.000000 4.125300 -43.652300 -84.859300 84.612500 -59.890000 55.336000 17.879700 57.529000 -43.243300 0.000000 0.000000 0.000000 -7.125000 0.000000 0.000000 -32.213400 72.412800 21.596600 0.000000 -0.000000 0.000000 1.160900 -26.577900 -17.759000 -12.748600 -20.917800 -2.362800 -48.640500 -58.249000 -23.835400 0.000000 0.000000 0.000000 7.125000 0.000000 -0.000000 -11.398200 -3.198300 -12.256000
13.390046 16.027531 19.001156 -40.947443 -55.564790 53.936405 0.000000 0.000000 0.000000 -0.649145 -13.794479 -58.245307 17.294339 19.821861 82.066180 -0.442945 -18.075262 -8.029380 0.297688 3.318875 9.185563 0.000000 0.000000 0.000000 40.640658 -14.583166 -3.100910 -2.096589 -9.063133 25.993968 -2.078953 -5.350161 -29.569511 -0.910249 6.073722 -17.000272 16.503460 -0.578173 16.281350 7.383075 2.510660 0.975663 -1.703131 0.599996 -7.773434 -12.700145 -21.525465 6.477295 31.185792 -33.851660 5.498525 8.298583 -16.792498 8.637525 0.000000 0.000000 0.000000 3.079307 -44.092989 -86.438043 82.938380 -59.801918 53.888828 17.607882 57.322719 -43.691946 0.000000 0.000000 0.000000 -7.125000 0.000000 0.000000 -33.503582 72.661133 22.695199 0.000000 0.000000 0.000000 1.777864 -26.132128 -17.293776 -12.528339 -20.591608 -2.285217 -48.335803 -56.794147 -23.177655 0.000000 0.000000 0.000000 7.125000 0.000000 0.000000 -11.397647 -2.233758 -12.069502
13.405882 16.038113 18.929101 -37.910856 -54.832529 51.385171 0.000000 0.000000 0.000000 -1.363658 -14.819873 -57.713249 16.994746 19.781319 81.182256 -0.304912 -18.294915 -9.866064 0.117709 2.175041 5.990854 0.000000 0.000000 0.000000 40.545409 -15.399629 -4.205773 -2.167281 -9.205872 26.441725 -2.191439 -4.739309 -29.969296 -0.849062 5.876309 -16.426224 16.763550 -1.208943 15.916446 6.969272 1.667893 0.843519 -2.109264 0.190147 -7.817090 -12.764709 -21.358041 6.349481 31.211524 -33.774599 5.938716 8.318485 -16.718483 8.809430 0.000000 0.000000 0.000000 2.017211 -44.491681 -87.976283 81.251019 -59.705074 52.430813 17.301567 57.057172 -44.030116 0.000000 0.000000 0.000000 -7.125000 0.000000 0.000000 -34.588009 72.812599 23.577695 0.000000 0.000000 0.000000 2.556083 -26.242312 -20.010779 -12.180878 -20.071314 -2.167015 -47.562950 -51.941018 -22.714652 0.000000 0.000000 0.000000 7.125000 0.000000 0.000000 -11.077698 -1.328409 -11.557843
13.419973 16.056569 18.858701 -35.076634 -54.119194 49.082207 0.000000 0.000000 0.000000 -2.187788 -15.720259 -57.273223 16.675018 19.730978 80.235784 -0.161019 -18.397973 -11.385845 0.059964 1.452312 3.996731 0.000000 0.000000 0.000000 40.355264 -16.309244 -5.336809 -2.221821 -9.312909 26.779688 -2.243659 -4.385763 -30.124794 -0.891942 6.018214 -16.837736 16.848924 -1.799714 15.561519 6.579809 0.851389 0.691778 -2.402246 -0.206279 -7.915284 -12.840414 -21.163862 6.272671 31.190637 -33.646399 6.370673 8.347827 -16.626974 8.949346 0.000000 0.000000 0.000000 0.886617 -44.711721 -89.342224 79.507329 -59.570961 50.926669 16.848500 56.539508 -43.898324 0.000000 0.000000 0.000000 -7.125000 0.000000 0.000000 -34.797163 72.551999 23.540893 0.000000 0.000000 0.000000 4.020274 -28.717518 -36.264868 -11.292317 -18.725321 -1.876022 -44.798575 -32.631727 -23.080079 0.000000 0.000000 0.000000 7.125000 0.000000 0.000000 -9.399048 -0.674864 -9.662965
13.433664 16.075236 18.786682 -32.436586 -53.351525 46.945525 0.000000 0.000000 0.000000 -2.990945 -16.503080 -56.898196 16.346667 19.675336 79.261903 -0.041105 -18.539146 -12.656446 0.046939 1.286612 3.539597 0.000000 0.000000 0.000000 40.236743 -17.201778 -6.452553 -2.276993 -9.420092 27.118934 -2.280544 -4.114107 -30.224802 -0.950557 6.205449 -17.382800 16.934299 -2.364003 15.187408 6.228797 0.057772 0.582297 -2.660478 -0.587771 -7.958536 -12.889824 -20.997891 6.158945 31.146968 -33.541527 6.787528 8.356324 -16.542891 9.086358 0.000000 0.000000 0.000000 -0.245071 -44.940891 -90.738540 77.815932 -59.425826 49.469076 16.544825 56.089955 -43.847664 0.000000 0.000000 0.000000 -7.125000 0.000000 0.000000 -35.020622 72.405724 23.596813 0.000000 0.000000 0.000000 4.802089 -28.969507 -39.599708 -10.955232 -18.216818 -1.764059 -43.798936 -27.152944 -22.828252 0.000000 0.000000 0.000000 7.125000 0.000000 0.000000 -8.887443 0.051295 -8.981010
13.446705 16.094245 18.712027 -30.112458 -52.495456 45.079381 0.000000 0.000000 0.000000 -3.759981 -17.094625 -56.628920 16.004283 19.611070 78.243429 0.039794 -18.742332 -13.521632 0.106674 2.027190 5.583122 0.000000 0.000000 0.000000 40.234753 -18.066522 -7.543416 -2.333191 -9.527515 27.460267 -2.292479 -3.975684 -30.234528 -1.034772 6.466436 -18.145150 17.019674 -2.885203 14.782085 5.940346 -0.698610 0.541571 -2.862172 -0.944963 -7.912395 -12.896455 -20.877814 5.985156 31.066235 -33.474608 7.179810 8.330905 -16.470889 9.218647 0.000000 0.000000 0.000000 -1.378539 -45.184914 -92.184275 76.209615 -59.262757 48.087220 16.484206 55.751219 -43.929005 0.000000 0.000000 0.000000 -7.125000 0.000000 0.000000 -35.267352 72.445455 23.803591 0.000000 0.000000 0.000000 4.473686 -25.604359 -21.915135 -11.515390 -19.070897 -1.943373 -45.670495 -44.176180 -21.572165 0.000000 0.000000 0.000000 7.125000 0.000000 0.000000 -10.274604 0.895593 -10.272463
13.459368 16.112055 18.633239 -28.011943 -51.642795 43.379677 0.000000 0.000000 0.000000 -4.535738 -17.537211 -56.414987 15.672313 19.542986 77.252594 0.080463 -18.908476 -13.996482 0.190862 2.748678 7.584019 0.000000 0.000000 0.000000 40.267251 -18.765868 -8.477842 -2.379671 -9.615439 27.740388 -2.300250 -3.856382 -30.228161 -1.094880 6.648384 -18.678144 17.050589 -3.353522 14.411943 5.672121 -1.392896 0.540602 -3.029317 -1.268205 -7.835648 -12.825814 -20.781274 5.772431 30.982473 -33.423277 7.542180 8.287816 -16.402673 9.337085 0.000000 0.000000 0.000000 -2.489762 -45.460331 -93.747228 74.700701 -59.090570 46.791408 16.619371 55.530805 -44.165773 0.000000 0.000000 0.000000 -7.125000 0.000000 0.000000 -35.659666 72.669927 24.254650 0.000000 0.000000 0.000000 4.615290 -23.942735 -13.710758 -11.684044 -19.328980 -1.996636 -46.042581 -50.644161 -20.732635 0.000000 0.000000 0.000000 7.125000 0.000000 0.000000 -10.687736 1.800031 -10.536753
